# xmcd CD database file
# Copyright (C) 1993-1998 Ti Kan
#
# Track frame offsets:
#	150
#	10315
#	19977
#	31690
#	43420
#	54682
#	65250
#	75910
#	88220
#	99725
#	108925
#	118912
#	129797
#	138437
#	157775
#	168217
#	206872
#	225900
#	251712
#	264645
#	274707
#	292272
#
# Disc length: 4171 seconds
#
# Revision: 2
# Processed by: cddbd v1.4PL0 Copyright (c) Steve Scherf et al.
# Submitted via: Gronk 1.4
#
DISCID=31104916
DTITLE=Chuck Berry - The Collectors Chuck Berry
DYEAR=1900
DGENRE=blues
TTITLE0=Sweet Little Sixteen
TTITLE1=Memphis
TTITLE2=Schooldays
TTITLE3=Maybellene
TTITLE4=Back In The USA
TTITLE5=Around And Around
TTITLE6=Brown Eyed Handsome Man
TTITLE7=Johnny B. Goode
TTITLE8=Rock and Roll Music
TTITLE9=Roll Over Beethoven
TTITLE10=Thirty Days
TTITLE11=Carol (Oh Carol)
TTITLE12=Let It Rock
TTITLE13=Reelin' and Rockin'
TTITLE14=Club Nitty Gritty
TTITLE15=Medly - Rockin' @ The Filmore, Every Day I Have The Bl
TTITLE15=ues
TTITLE16=C. C. Rider
TTITLE17=Hoochi' Coochi' Man
TTITLE18=Good Morning Little Schoolgirl
TTITLE19=Bring Another Drink
TTITLE20=Worried Life Blues
TTITLE21=My Ding-A-Ling
EXTD=
EXTT0=
EXTT1=
EXTT2=
EXTT3=
EXTT4=
EXTT5=
EXTT6=
EXTT7=
EXTT8=
EXTT9=
EXTT10=
EXTT11=
EXTT12=
EXTT13=
EXTT14=
EXTT15=
EXTT16=
EXTT17=
EXTT18=
EXTT19=
EXTT20=
EXTT21=
PLAYORDER=
